PathFileType	4	(X/Y/Z)	./resultDataOpenSim/trcMotMarkerGrf/sub10/qtm-03-06.trc
DataRate	CameraRate	NumFrames	NumMarkers	Units	OrigDataRate	OrigDataStartFrame	OrigNumFrames
250.000000	250.000000	6	24	m	250.000000	1	504
Frame#	Time	L.Toe.Tip			R.Toe.Tip			L.Ankle.Lat			R.Ankle.Lat			L.Ankle.Med			R.Ankle.Med			L.Heel			R.Heel			L.Knee.Lat			R.Knee.Lat			L.Knee.Med			R.Knee.Med			L.Thigh.Upper			R.Thigh.Upper			L.ASIS			R.ASIS			V.Sacral			L.Acromium			R.Acromium			C7			L.Elbow			R.Elbow			L.Wrist.Lat			R.Wrist.Lat
		X1	Y1	Z1	X2	Y2	Z2	X3	Y3	Z3	X4	Y4	Z4	X5	Y5	Z5	X6	Y6	Z6	X7	Y7	Z7	X8	Y8	Z8	X9	Y9	Z9	X10	Y10	Z10	X11	Y11	Z11	X12	Y12	Z12	X13	Y13	Z13	X14	Y14	Z14	X15	Y15	Z15	X16	Y16	Z16	X17	Y17	Z17	X18	Y18	Z18	X19	Y19	Z19	X20	Y20	Z20	X21	Y21	Z21	X22	Y22	Z22	X23	Y23	Z23	X24	Y24	Z24

1	0	-1.614768	0.037347642	-0.1872613	-1.0243025	0.0981373	-0.034544521	-1.7479427	0.064482708	-0.21130034	-1.1625839	0.066836434	-0.024300777	-1.738969	0.088765373	-0.12906022	-1.1414048	0.10778364	-0.099287307	NaN	NaN	NaN	-1.1907887	0.03097472	-0.085063622	-1.6013758	0.4267884	-0.24801176	-1.2844979	0.44661434	0.022163353	-1.6015472	0.40483988	-0.12666623	-1.253835	0.46390848	-0.10390384	-1.5025855	0.81151386	-0.30687581	-1.4472202	0.82775379	0.074085663	-1.4247041	0.91429281	-0.24893787	-1.3896221	0.92281888	-0.0045588958	-1.6102247	0.92924934	-0.10004899	-1.4298074	1.3768101	-0.28143707	-1.4862321	1.3872908	0.04156048	-1.5360318	1.4177934	-0.13906964	-1.4787761	1.0258766	-0.33184262	NaN	NaN	NaN	-1.2800576	0.89367001	-0.24657591	-1.5757408	0.86539678	0.14077621
2	0.004	-1.6147235	0.037321393	-0.18730841	-1.0135869	0.10136066	-0.034121851	-1.7473754	0.064913965	-0.21124018	-1.1510632	0.067474519	-0.022871096	-1.7386765	0.088988619	-0.12888876	-1.1312936	0.10854224	-0.098304694	NaN	NaN	NaN	-1.1789539	0.030702753	-0.083293243	-1.5989766	0.42620078	-0.24802288	-1.2796161	0.44523606	0.022655857	-1.5982474	0.40417469	-0.12669514	-1.2499496	0.46215186	-0.1037733	-1.4994747	0.8106005	-0.30687924	-1.4419064	0.82669927	0.074184384	-1.4211324	0.91328901	-0.24933997	-1.3845774	0.92190521	-0.004884781	-1.6051648	0.92742387	-0.099434523	-1.4252506	1.3754315	-0.2817251	-1.480986	1.3862673	0.041419677	-1.5312008	1.4167233	-0.13863692	-1.4738654	1.0243241	-0.33164734	NaN	NaN	NaN	-1.274634	0.8932324	-0.24606967	-1.5725286	0.86434466	0.14052888
3	0.008	-1.6146747	0.03729267	-0.18735324	-1.0031046	0.10448191	-0.033774759	-1.7466892	0.065403794	-0.21120625	-1.1397809	0.068119326	-0.021519862	-1.7383632	0.08921958	-0.12872697	-1.1213651	0.10929502	-0.097379672	NaN	NaN	NaN	-1.1673717	0.030528662	-0.081557724	-1.5965319	0.42560039	-0.24801089	-1.2747306	0.44392642	0.02318636	-1.5949342	0.40345088	-0.12671555	-1.246089	0.46040811	-0.10361934	-1.4963875	0.80969879	-0.30685283	-1.4364439	0.82569217	0.074300164	-1.417555	0.91224984	-0.24975226	-1.3795001	0.9209475	-0.0052451267	-1.5999501	0.92551017	-0.098814266	-1.4206664	1.3740563	-0.28197688	-1.4756288	1.3852169	0.041297225	-1.526477	1.415684	-0.13835912	-1.4689398	1.0227795	-0.33145357	NaN	NaN	NaN	-1.2691791	0.89278372	-0.2455391	-1.5689913	0.86333802	0.14034077
4	0.012	-1.6146217	0.037264897	-0.18739446	-0.99294409	0.10745325	-0.033564106	-1.745906	0.065956008	-0.2111822	-1.1288602	0.068761043	-0.020281591	-1.7380338	0.089465584	-0.12858161	-1.1117155	0.11003459	-0.096526443	NaN	NaN	NaN	-1.1561932	0.030486396	-0.079893978	-1.5940305	0.42498692	-0.24797904	-1.2697858	0.44272611	0.023771516	-1.5916518	0.40265672	-0.12671956	-1.2422366	0.4586985	-0.10342018	-1.493293	0.80879604	-0.30680201	-1.4307757	0.82474558	0.074415575	-1.413965	0.9111536	-0.2501991	-1.3742155	0.91994881	-0.0056346938	-1.5945153	0.92349114	-0.098167756	-1.416042	1.3726959	-0.28219736	-1.4700893	1.3841173	0.041198201	-1.5218262	1.414676	-0.13822579	-1.4639944	1.0212533	-0.33123349	NaN	NaN	NaN	-1.2636744	0.8923251	-0.24499523	-1.5646485	0.86242841	0.14029972
5	0.016	-1.6145726	0.037241228	-0.18743111	-0.98311191	0.11023209	-0.033493187	-1.7452225	0.066515464	-0.21112171	-1.1183359	0.069371889	-0.019146492	-1.7376879	0.089738987	-0.12845013	-1.1023723	0.11074483	-0.095725028	NaN	NaN	NaN	-1.1454896	0.030554627	-0.078321414	-1.5914904	0.42437304	-0.24795159	-1.2647443	0.44165321	0.024403338	-1.5884705	0.40180943	-0.12669631	-1.2383693	0.45704298	-0.10316938	-1.4901452	0.80787021	-0.30675201	-1.4249389	0.82384863	0.074505599	-1.4103528	0.9100105	-0.2507003	-1.3686907	0.91892775	-0.0060550321	-1.5889145	0.92143698	-0.09746012	-1.4113825	1.3713614	-0.28240795	-1.4644046	1.3829641	0.041125238	-1.5171248	1.4136764	-0.13812014	-1.4590607	1.019772	-0.33095641	NaN	NaN	NaN	-1.2581294	0.89186967	-0.24446825	-1.5596296	0.86158662	0.14037374
6	0.02	-1.6145374	0.037221261	-0.18746157	-0.97361218	0.1127499	-0.033534383	-1.7448258	0.067031426	-0.21100397	-1.1082166	0.069924561	-0.018092099	-1.7372942	0.090058408	-0.12832179	-1.0933393	0.11140263	-0.094949232	NaN	NaN	NaN	-1.1352841	0.030695425	-0.076835751	-1.5889112	0.42376351	-0.24794776	-1.259613	0.44070929	0.025065043	-1.5853849	0.40092762	-0.12664515	-1.2344711	0.45545486	-0.10287123	-1.4869274	0.8069203	-0.30672459	-1.4189627	0.82299482	0.074577172	-1.406699	0.90885581	-0.25124942	-1.3631721	0.91787892	-0.0065467342	-1.5832643	0.91946349	-0.096648838	-1.4066934	1.3700532	-0.28261297	-1.4586801	1.3817734	0.041081462	-1.5122995	1.412664	-0.13797956	-1.4541734	1.0183617	-0.33061683	NaN	NaN	NaN	-1.2525582	0.8914306	-0.24397734	-1.5548947	0.86067242	0.14036309
